<?xml version="1.0" encoding="UTF-8" standalone="no"?>
<!-- Created with Inkscape (http://www.inkscape.org/) -->

<svg
   version="1.1"
   id="svg1"
   width="670.93793"
   height="839.00476"
   viewBox="0 0 670.93793 839.00476"
   xmlns="http://www.w3.org/2000/svg"
   xmlns:svg="http://www.w3.org/2000/svg">
  <defs
     id="defs1" />
  <g
     id="g1"
     transform="translate(-463.0184,787.42322)">
    <path
       style="fill:#000000;stroke-width:8.00412"
       d="M 714.38718,34.224095 C 701.98792,24.319005 677.18973,9.0111349 659.27997,0.20660488 l -32.56306,-16.00822988 -2.33592,-61.93233 c -1.28474,-34.062795 1.54335,-69.180845 6.28467,-78.040125 6.81958,-12.74257 6.16453,-16.10778 -3.13553,-16.10778 -6.86401,0 -12.81003,9.13116 -14.28879,21.94287 -1.60226,13.88208 -8.0543,22.9911 -17.56343,24.79635 -12.66195,2.40378 -14.45719,-1.05429 -11.39138,-21.94288 2.00159,-13.63799 0.66114,-24.79634 -2.97857,-24.79634 -3.63979,0 -6.6178,10.80555 -6.6178,24.01234 0,16.00823 -4.00206,24.01234 -12.00617,24.01234 -12.33586,0 -14.14639,-5.45978 -13.2717,-40.02057 0.50105,-19.80224 0.44823,-19.81814 -5.11712,-1.52865 -7.85948,25.83005 -21.19169,22.21632 -23.89012,-6.47546 -3.49619,-37.17544 -3.12912,-49.20534 2.72356,-89.25529 4.78598,-32.75016 3.40335,-38.31874 -11.49342,-46.29129 -9.31367,-4.9845 -24.58544,-24.06093 -33.93729,-42.39206 -25.91572,-50.79905 -18.15373,-110.74258 28.36738,-219.07195 20.60507,-47.98115 46.51679,-102.69808 57.58152,-121.59331 26.77929,-45.73071 74.15485,-78.7095 129.68931,-90.27865 66.73655,-13.90275 192.31415,-5.20772 265.55156,18.38681 120.96613,38.97116 169.48553,89.35922 174.67383,181.40134 6.0582,107.4726 -58.7963,296.30818 -113.1471,329.44817 -32.04566,19.53964 -42.52897,19.48765 -79.62556,-0.39493 -38.29608,-20.52547 -44.24514,-20.16822 -66.64538,4.00206 l -18.54489,20.01029 h 25.85121 c 40.90022,0 59.99692,18.25787 60.68199,58.0165 0.32257,18.71694 2.03977,51.6571 3.81621,73.200335 2.68025,32.50523 0.31055,41.69239 -13.9266,53.99775 -9.43597,8.15553 -34.51071,30.59415 -55.72161,49.8636199 -29.6406,26.9276301 -47.03274,36.1959801 -75.15519,40.0505901 -55.2444,7.57208 -62.34365,6.5088 -86.7574,-12.99403 z m 129.99546,-18.64818 22.45771,-20.6492101 -20.01029,4.92724998 C 835.8244,2.5639549 800.69731,6.9738849 768.76993,9.6538149 721.15049,13.650895 712.33796,16.475805 719.72424,25.375755 c 5.69021,6.85626 26.15465,10.84937 55.6025,10.84937 38.94987,0 50.28441,-3.38928 69.0559,-20.64921 z m -11.2954,-27.84328 c 49.96528,-9.76329 101.78808,-36.53201 101.78808,-52.57798 0,-9.07748 -3.99525,-10.96395 -14.0072,-6.61388 -67.37455,29.27343 -107.313,37.95251 -178.09155,38.70131 -48.33028,0.5113 -82.60174,-2.91791 -94.04835,-9.4105 -14.99819,-8.50705 -18.00925,-8.32434 -18.00925,1.09277 0,39.4236399 85.64642,51.6159 202.36827,28.80828 z m 39.75619,-51.47963 c 61.21683,-21.88229 45.40943,-41.645735 -17.92801,-22.4147 -58.97424,17.90626 -151.02964,21.83406 -190.17897,8.11453 -28.02544,-9.82126 -34.01748,-10.01622 -34.01748,-1.1068 0,5.94789 9.90509,16.42968 22.01131,23.29289 29.0595,16.47427 165.65476,11.58051 220.11315,-7.88592 z m -31.04227,-32.16463 c 25.4975,-6.641265 53.84416,-16.080855 62.99238,-20.976875 30.7013,-16.4308 -3.05141,-23.54247 -46.58595,-9.81564 -42.798,13.49462 -169.58894,18.72025 -206.26067,8.50093 -17.12384,-4.77188 -21.9448,-3.77623 -19.37828,4.00206 10.23854,31.029665 122.60855,40.852205 209.23252,18.289525 z m 93.07416,-11.937325 c 0,-4.40226 -3.38926,-8.00411 -7.53179,-8.00411 -4.14245,0 -9.75774,3.60185 -12.47849,8.00411 -2.72076,4.40226 0.66834,8.004125 7.53171,8.004125 6.86321,0 12.47857,-3.601865 12.47857,-8.004125 z m -88.04526,-31.09121 c 15.79452,-7.12096 3.1473,-8.09677 -60.03086,-4.63174 -119.22537,6.53895 -124.06378,7.11461 -124.06378,14.76082 0,9.75279 159.45566,0.97938 184.09464,-10.12908 z m -245.07358,-5.34302 c 2.7334,-7.12306 1.39151,-10.33589 -3.1457,-7.53174 -4.35184,2.68958 -7.91239,8.27943 -7.91239,12.42189 0,11.51338 5.73703,8.97631 11.05809,-4.89015 z m 52.97483,0.41573 c 0,-6.60339 -3.60185,-12.00617 -8.00412,-12.00617 -4.40226,0 -8.00411,5.40278 -8.00411,12.00617 0,6.6034 3.60185,12.00617 8.00411,12.00617 4.40227,0 8.00412,-5.40277 8.00412,-12.00617 z m 40.02057,-8.47649 c 0,-6.86321 -3.60185,-10.25249 -8.00411,-7.53174 -4.40227,2.72074 -8.00412,8.3361 -8.00412,12.47855 0,4.14245 3.60185,7.53174 8.00412,7.53174 4.40226,0 8.00411,-5.61535 8.00411,-12.47855 z m 240.12344,4.47443 c 0,-4.40226 -3.60185,-8.00411 -8.00411,-8.00411 -4.40226,0 -8.00412,3.60185 -8.00412,8.00411 0,4.40227 3.60186,8.00412 8.00412,8.00412 4.40226,0 8.00411,-3.60185 8.00411,-8.00412 z M 723.47385,-177.8444 c -8.60843,-8.60836 -13.17846,3.44778 -7.13559,18.82414 5.66859,14.42392 6.09673,14.4489 8.90009,0.51914 1.6198,-8.04852 0.82571,-16.75299 -1.7645,-19.34326 z m 36.91177,-3.64238 c -7.47056,-7.47052 -9.60493,-5.33608 -9.60493,9.60493 0,14.94101 2.13437,17.07544 9.60493,9.60494 7.47048,-7.47051 7.47048,-11.73937 0,-19.20987 z m 146.11912,18.18531 c 7.50033,-12.13572 -51.83905,-21.35187 -113.70245,-17.65942 -33.21852,1.98272 -18.43276,16.17265 20.01028,19.20393 75.79729,5.9767 89.18017,5.75608 93.69217,-1.54451 z m -196.76059,-29.52708 c 11.56442,-6.03413 28.74502,-10.99332 38.17915,-11.02045 9.43405,-0.0272 19.22612,-5.45208 21.76006,-12.05548 2.53403,-6.60339 11.02351,-12.25705 18.86562,-12.56367 7.84211,-0.30664 -3.56175,-6.02583 -25.34207,-12.70935 -21.78023,-6.68352 -54.63921,-22.49881 -73.01993,-35.14508 -34.35102,-23.63414 -43.45979,-23.38761 -43.45979,1.17623 0,17.7643 -44.55426,50.28014 -60.50726,44.15839 -6.55289,-2.51459 -14.94385,-12.75597 -18.64655,-22.75865 -6.36927,-17.20619 -7.03994,-16.7868 -12.43943,7.77902 -3.1389,14.28113 -11.26732,29.07734 -18.06313,32.88047 -10.57135,5.91601 -9.79111,8.7113 5.40166,19.35278 22.95308,16.07693 137.01235,16.69458 167.27167,0.90579 z m 217.12706,2.2212 c 0,-17.39885 -37.19168,-29.29918 -91.56763,-29.29918 -37.7663,0 -51.97536,3.07931 -55.40096,12.00617 -3.77266,9.8314 4.40882,12.15068 45.1673,12.80402 27.37599,0.43879 58.77917,3.68164 69.78483,7.20627 29.19845,9.35097 32.01646,9.11181 32.01646,-2.71728 z m -56.53282,-68.37808 c 12.63937,-23.61679 30.87603,-26.1183 64.68109,-8.87226 45.22284,23.071 66.27102,20.44885 94.56952,-11.78129 47.7812,-54.41976 90.7593,-185.50862 91.7753,-279.9266 0.7884,-73.30024 -19.9,-115.72485 -72.8038,-149.29218 -78.36718,-49.72381 -226.32028,-78.68958 -324.29192,-63.48872 -106.57767,16.5361 -135.46829,45.27063 -205.06102,203.95316 -37.25315,84.94303 -49.95152,140.12596 -41.5127,180.40034 5.13536,24.50885 7.14463,18.80559 16.05649,-45.57671 5.60264,-40.47512 14.78464,-77.40723 20.40449,-82.07123 15.04462,-12.48602 59.96211,-0.84947 72.18415,18.70034 5.81115,9.29517 12.97115,30.60461 15.91114,47.35426 l 5.34539,30.45389 27.35062,-24.01418 c 56.1363,-49.2883 147.74955,-53.93445 171.94735,-8.72032 4.9844,9.31342 9.0625,36.89416 9.0625,61.29054 0,34.95906 -3.80844,48.41112 -17.97516,63.49089 -35.78167,38.08787 -125.61233,17.73901 -170.72873,-38.67428 -19.8169,-24.77899 -21.60006,-25.42188 -32.12403,-11.58188 -9.70523,12.76318 -9.21538,16.58052 3.79739,29.59325 8.21695,8.21693 19.42511,30.43773 24.90713,49.37956 8.52782,29.46603 10.42055,31.54987 13.10609,14.4294 5.00754,-31.92288 12.97267,-33.78562 46.40186,-10.85157 71.01995,48.72324 169.94608,67.6653 186.99685,35.80559 z m -255.62765,-11.75345 c 0,-25.17478 -15.77868,-69.22937 -24.79539,-69.22937 -9.90982,0 -9.12453,53.52458 1.06463,72.56323 11.34655,21.20122 23.73076,19.46141 23.73076,-3.33386 z m -80.04115,-45.21703 c -4.71203,-8.80453 -14.7439,-15.92814 -22.29298,-15.83025 -10.8844,0.14111 -9.58349,3.41795 6.28475,15.83025 25.15525,19.67675 26.53892,19.67675 16.00823,0 z m 26.13207,-23.24983 c 2.93591,-11.22694 -0.9284,-16.74522 -14.02881,-20.03321 -16.86547,-4.23296 -30.39731,-26.85785 -38.74024,-64.77254 -1.9959,-9.07027 -3.97228,-3.86679 -4.56034,12.00617 -0.57069,15.40792 -3.09007,35.66145 -5.5984,45.00786 -3.65508,13.61922 0.34018,18.70175 20.11954,25.59701 13.57418,4.73196 24.68029,12.60536 24.68029,17.49643 0,13.62615 13.55529,2.18418 18.12796,-15.30172 z m 227.30445,2.66025 c 18.38882,-18.38879 20.1939,-25.36138 16.88748,-65.23241 -4.7955,-57.82717 -18.20888,-68.60823 -80.10341,-64.3835 -36.2572,2.47479 -52.12544,8.17108 -75.52851,27.11274 -16.29518,13.18886 -30.87355,27.71744 -32.39634,32.28571 -4.61709,13.85112 59.37533,73.66617 87.48306,81.77223 43.63963,12.58533 62.06214,10.04083 83.65772,-11.55477 z M 566.88415,-392.5161 c 10.48827,-27.58618 9.84346,-62.2889 -1.62508,-87.4596 -23.30318,-51.14486 -56.20185,10.9846 -39.17037,73.97346 10.49307,38.80772 28.85979,44.87934 40.79545,13.48614 z m 24.7901,-40.07148 -7.37195,-31.44449 -0.80401,39.62037 c -0.54748,26.96866 1.80677,37.00967 7.37187,31.44448 5.34419,-5.3441 5.62265,-19.06708 0.80409,-39.62036 z"
       id="path2" />
  </g>
</svg>
